<svg xmlns="http://www.w3.org/2000/svg" viewBox="0 0 720 720" fill="none">
  <circle cx="360" cy="360" r="350" fill="#f7eac8"></circle>
  <circle cx="365" cy="381" r="243" fill="#e9a07c"></circle>
  <g transform="translate(2 -55)">
    <!-- cobra neck + head -->
    <path d="M438 460 C426 408 428 336 444 292 C452 266 460 250 470 238" stroke="#6b5334" stroke-width="76" stroke-linecap="round"></path>
    <path d="M438 460 C426 408 428 336 444 292 C452 266 460 250 470 238" stroke="#8fa38e" stroke-width="66" stroke-linecap="round"></path>
    <path d="M427 458 C415 410 416 340 432 296 C440 270 450 252 460 240" stroke="#eee0bd" stroke-width="42" stroke-linecap="round"></path>
    <g stroke="#6b5334" stroke-width="4" stroke-linecap="round">
      <path d="M403 436 L446 441"></path>
      <path d="M399 404 L443 407"></path>
      <path d="M398 372 L442 373"></path>
      <path d="M401 340 L445 339"></path>
      <path d="M407 308 L450 305"></path>
      <path d="M416 280 L457 274"></path>
      <path d="M427 256 L465 249"></path>
    </g>
    <path d="M322 214 C314 200 324 186 350 177 C386 164 436 160 466 170 C488 178 497 193 493 209 C488 227 462 238 428 237 C392 236 338 228 322 214 Z"
          fill="#8fa38e" stroke="#6b5334" stroke-width="7" stroke-linejoin="round"></path>
    <circle cx="352" cy="199" r="9.5" fill="#4c412e"></circle>
    <circle cx="355" cy="195" r="2.8" fill="#f2e6c4"></circle>
    <!-- cat -->
    <path d="M178 372 C171 330 184 299 211 288 C229 306 242 330 248 350 Z" fill="#ded0b2" stroke="#6b5334" stroke-width="6" stroke-linejoin="round"></path>
    <path d="M250 348 C253 314 273 291 299 281 C319 302 334 333 338 360 Z" fill="#ded0b2" stroke="#6b5334" stroke-width="6" stroke-linejoin="round"></path>
    <g stroke="#eba184" stroke-width="4.5" stroke-linecap="round">
      <path d="M198 324 L208 302"></path>
      <path d="M210 336 L224 312"></path>
      <path d="M222 347 L238 326"></path>
      <path d="M269 317 L280 294"></path>
      <path d="M282 329 L296 306"></path>
      <path d="M294 342 L310 321"></path>
    </g>
    <path d="M144 452 C142 414 158 384 182 371 C204 360 228 354 250 350 C272 346 304 350 338 360 C344 381 348 398 350 414 C400 445 470 465 525 495 C548 530 548 585 528 618 C505 640 475 648 450 642 C420 648 390 640 370 634 C358 630 350 624 346 620 C340 626 332 630 324 632 C280 648 230 650 186 642 C135 632 108 600 112 558 L124 530 L112 516 L126 500 L114 480 Z"
          fill="#ded0b2" stroke="#6b5334" stroke-width="6" stroke-linejoin="round"></path>
    <path d="M142 428 Q152 438 164 430" stroke="#4c412e" stroke-width="5" stroke-linecap="round"></path>
    <path d="M240 450 Q262 466 290 440" stroke="#4c412e" stroke-width="5" stroke-linecap="round"></path>
    <ellipse cx="155" cy="447" rx="6.5" ry="4.5" fill="#e2836a"></ellipse>
    <path d="M140 458 Q148 468 157 458 Q165 468 174 458" stroke="#e2836a" stroke-width="4.5" stroke-linecap="round"></path>
    <ellipse cx="214" cy="456" rx="11" ry="7.5" fill="#ec9d80" opacity="0.9"></ellipse>
    <g stroke="#6b5334" stroke-width="3.6" stroke-linecap="round">
      <path d="M245 439 C260 434 274 430 288 429"></path>
      <path d="M247 452 C263 450 278 449 293 450"></path>
      <path d="M248 464 C262 467 275 471 287 475"></path>
      <path d="M312 431 C317 443 320 456 320 467"></path>
      <path d="M118 432 L92 424"></path>
      <path d="M116 445 L86 445"></path>
      <path d="M118 458 L92 466"></path>
    </g>
    <g stroke="#6b5334" stroke-width="5" stroke-linecap="round">
      <path d="M172 540 C180 562 190 582 202 597"></path>
      <path d="M250 543 C234 562 216 582 202 597"></path>
      <path d="M202 597 C240 620 280 628 320 628"></path>
    </g>
    <!-- coil -->
    <path d="M326 414 C368 388 440 382 500 400 C556 416 598 448 610 482 C616 504 610 522 592 530 C576 534 560 532 548 524 C534 548 510 560 488 553 C468 547 458 532 460 513 C458 494 450 476 434 462 C410 442 366 426 326 414 Z"
          fill="#8fa38e" stroke="#6b5334" stroke-width="6.5" stroke-linejoin="round"></path>
    <path d="M394 428 C448 450 492 486 506 524" stroke="#6b5334" stroke-width="5" stroke-linecap="round"></path>
    <path d="M336 424 C372 434 404 446 426 466 C444 482 452 500 456 518 C459 538 470 550 490 548 C508 546 518 534 516 518" stroke="#6b5334" stroke-width="24" stroke-linecap="round"></path>
    <path d="M336 424 C372 434 404 446 426 466 C444 482 452 500 456 518 C459 538 470 550 490 548 C508 546 518 534 516 518" stroke="#eee0bd" stroke-width="17" stroke-linecap="round"></path>
    <g stroke="#6b5334" stroke-width="3.2" stroke-linecap="round">
      <path d="M356 420 L352 436"></path>
      <path d="M381 428 L375 444"></path>
      <path d="M406 441 L398 455"></path>
      <path d="M429 458 L419 470"></path>
      <path d="M446 477 L434 487"></path>
      <path d="M457 497 L443 503"></path>
      <path d="M464 517 L448 519"></path>
      <path d="M469 532 L455 540"></path>
      <path d="M479 538 L473 554"></path>
      <path d="M493 540 L495 556"></path>
      <path d="M504 533 L516 543"></path>
    </g>
    <!-- haunch + curled tail -->
    <path d="M500 505 C540 515 575 530 592 545 C606 562 606 590 596 608 C580 634 535 648 480 651 C462 652 450 646 447 638 C449 622 453 608 462 597 C475 570 486 540 488 518 C490 508 494 504 500 505 Z" fill="#ded0b2"></path>
    <path d="M462 597 C453 608 449 622 447 638 C450 646 462 652 480 651 C535 648 580 634 596 608 C606 590 606 562 592 545 C575 530 540 515 500 505" stroke="#6b5334" stroke-width="6" stroke-linecap="round"></path>
    <path d="M486 602 C524 598 556 584 568 561 C574 546 566 534 550 531" stroke="#6b5334" stroke-width="5" stroke-linecap="round"></path>
    <path d="M551 556 C557 567 555 579 546 588" stroke="#6b5334" stroke-width="5" stroke-linecap="round"></path>
  </g>
</svg>
