<svg xmlns="http://www.w3.org/2000/svg" viewBox="0 0 48 48">
  <circle cx="24" cy="24" r="24" fill="#f0e7c9"/>
  <circle cx="24" cy="25" r="16" fill="#e8987c"/>
  <path d="M30 26 C33 21 30 16 30.5 11.5" stroke="#57462f" stroke-width="5.6" fill="none" stroke-linecap="round"/>
  <path d="M30 26 C33 21 30 16 30.5 11.5" stroke="#87a794" stroke-width="4" fill="none" stroke-linecap="round"/>
  <path d="M29.4 24 L32.4 24.6 M30.4 20.5 L33 20.5 M29.6 17 L32.2 16.8 M29.8 13.5 L32.4 13.4" stroke="#f0e7c9" stroke-width="1.1" fill="none" stroke-linecap="round"/>
  <ellipse cx="29.6" cy="10" rx="3.6" ry="2.9" fill="#5e7d6d" stroke="#57462f" stroke-width="1.2" transform="rotate(-12 29.6 10)"/>
  <circle cx="28.2" cy="9.6" r="0.8" fill="#26231f"/>
  <path d="M12 30 C12 24 15 20 19 19.4 L21 22 H25 L27 19.4 C31 20 34 24 34 30 C34 34.5 30 37 23 37 C16 37 12 34.5 12 30 Z" fill="#eae0c2" stroke="#57462f" stroke-width="1.5"/>
  <path d="M18.5 27 Q20 28.5 21.5 27 M24.5 27 Q26 28.5 27.5 27" stroke="#57462f" stroke-width="1.4" fill="none" stroke-linecap="round"/>
</svg>
